HIERARCHY
ROOT Hips
{
	OFFSET 0.00 0.00 0.00
	CHANNELS 6 Xposition Yposition Zposition Xrotation Yrotation Zrotation
	JOINT Spine
	{
		OFFSET 0.00000 1.70439 2.55658
		CHANNELS 3 Xrotation Yrotation Zrotation
		JOINT Spine1
		{
			OFFSET 0.00000 0.59193 3.35699
			CHANNELS 3 Xrotation Yrotation Zrotation
			JOINT Spine2
			{
				OFFSET 0.00000 0.29710 3.39581
				CHANNELS 3 Xrotation Yrotation Zrotation
				JOINT Spine3
				{
					OFFSET 0.00000 0.00000 3.40878
					CHANNELS 3 Xrotation Yrotation Zrotation
					JOINT Neck
					{
						OFFSET 0.00000 -1.27828 8.94804
						CHANNELS 3 Xrotation Yrotation Zrotation
						JOINT Head
						{
							OFFSET 0.00000 -0.81390 4.61586
							CHANNELS 3 Xrotation Yrotation Zrotation
							End Site
							{
								OFFSET 0.00000 0.00001 5.51796
							}
						}
					}
					JOINT RightShoulder
					{
						OFFSET -1.18875 -1.98124 6.41925
						CHANNELS 3 Xrotation Yrotation Zrotation
						JOINT RightArm
						{
							OFFSET -5.90412 0.00000 0.00000
							CHANNELS 3 Xrotation Yrotation Zrotation
							JOINT RightForeArm
							{
								OFFSET -11.94674 0.00000 0.00000
								CHANNELS 3 Xrotation Yrotation Zrotation
								JOINT RightHand
								{
									OFFSET -10.17720 0.00000 0.00000
									CHANNELS 3 Xrotation Yrotation Zrotation
									JOINT RightHandEnd
									{
										OFFSET -2.84518 0.00000 0.00000
										CHANNELS 3 Xrotation Yrotation Zrotation
										End Site
										{
											OFFSET -2.84518 0.00000 0.00000
										}
									}
									JOINT RightHandThumb1
									{
										OFFSET -1.13807 -1.89679 -0.75871
										CHANNELS 3 Yrotation Xrotation Zrotation
										End Site
										{
											OFFSET -2.74823 -0.73639 0.00000
										}
									}
								}
							}
						}
					}
					JOINT LeftShoulder
					{
						OFFSET 1.18875 -1.98124 6.41925
						CHANNELS 3 Xrotation Yrotation Zrotation
						JOINT LeftArm
						{
							OFFSET 5.90412 0.00000 0.00000
							CHANNELS 3 Xrotation Yrotation Zrotation
							JOINT LeftForeArm
							{
								OFFSET 11.94674 0.00000 0.00000
								CHANNELS 3 Xrotation Yrotation Zrotation
								JOINT LeftHand
								{
									OFFSET 10.17720 0.00000 0.00000
									CHANNELS 3 Xrotation Yrotation Zrotation
									JOINT LeftHandEnd
									{
										OFFSET 2.84518 0.00000 0.00000
										CHANNELS 3 Xrotation Yrotation Zrotation
										End Site
										{
											OFFSET 2.84518 0.00000 0.00000
										}
									}
									JOINT LeftHandThumb1
									{
										OFFSET 1.13807 -1.89679 -0.75871
										CHANNELS 3 Yrotation Xrotation Zrotation
										End Site
										{
											OFFSET 2.74823 -0.73639 0.00000
										}
									}
								}
							}
						}
					}
				}
			}
		}
	}
	JOINT RightUpLeg
	{
		OFFSET -3.52662 0.00000 -1.03025
		CHANNELS 3 Xrotation Yrotation Zrotation
		JOINT RightLeg
		{
			OFFSET 0.00001 0.00000 -17.80159
			CHANNELS 3 Xrotation Yrotation Zrotation
			JOINT RightFoot
			{
				OFFSET 0.00001 0.00000 -16.85992
				CHANNELS 3 Xrotation Yrotation Zrotation
				JOINT RightToeBase
				{
					OFFSET 0.00000 -5.42953 -1.97619
					CHANNELS 3 Xrotation Yrotation Zrotation
					End Site
					{
						OFFSET 0.00000 -2.85300 -0.00000
					}
				}
			}
		}
	}
	JOINT LeftUpLeg
	{
		OFFSET 3.52662 0.00000 -1.03025
		CHANNELS 3 Xrotation Yrotation Zrotation
		JOINT LeftLeg
		{
			OFFSET 0.00001 0.00000 -17.80159
			CHANNELS 3 Xrotation Yrotation Zrotation
			JOINT LeftFoot
			{
				OFFSET 0.00001 0.00000 -16.85992
				CHANNELS 3 Xrotation Yrotation Zrotation
				JOINT LeftToeBase
				{
					OFFSET 0.00000 -5.42953 -1.97619
					CHANNELS 3 Xrotation Yrotation Zrotation
					End Site
					{
						OFFSET 0.00000 -2.85300 -0.00000
					}
				}
			}
		}
	}
}
MOTION
Frames: 15
Frame Time: 0.008342
 0.6073 -10.0583 38.1803 2.1903 1.3180 -176.7307 0.8671 -0.0440 -0.5913 0.5022 0.1608 -0.1170 0.1162 -2.3109 -1.9263 -0.4619 0.0735 0.4553 1.0433 -0.3713 -2.9210 0.0061 1.3132 0.0002 -2.5290 9.2934 -1.6980 4.3776 3.4717 -2.1292 0.0000 0.0000 10.5593 -1.9961 16.6316 -2.1945 0.0000 0.0000 0.0000 0.0000 -0.0000 -0.0000 -8.8572 -7.7302 -5.2921 15.4060 3.0379 1.7824 -0.0000 -0.0000 -12.5486 -7.9500 -13.3097 1.0915 -0.0000 -0.0000 0.0000 0.0000 0.0000 0.0000 -2.0405 3.7605 -39.6413 12.3163 0.0000 0.0000 -10.8541 0.0654 4.2660 2.4236 0.0000 0.0000 -2.8864 -2.2932 7.9651 12.9097 0.0000 0.0000 -7.5825 5.3936 4.2076 -2.6668 0.0000 -0.0000
 0.5973 -10.0462 38.1808 2.1927 1.3092 -176.8295 0.8675 -0.0427 -0.5888 0.5035 0.1581 -0.1176 0.1042 -2.3004 -1.8902 -0.4682 0.0712 0.4551 1.0459 -0.3659 -2.8981 0.0178 1.3029 -0.0006 -2.6014 9.3618 -1.6491 4.3765 3.5041 -2.1367 0.0000 0.0000 10.5637 -1.9690 16.6279 -2.2210 0.0000 0.0000 0.0000 0.0000 -0.0000 0.0000 -8.9513 -7.7739 -5.2359 15.3933 2.9748 1.8263 -0.0000 -0.0000 -12.5189 -7.9249 -13.3883 1.1228 -0.0000 0.0000 0.0000 0.0000 0.0000 0.0000 -2.0246 3.7696 -39.6286 12.3060 0.0000 0.0000 -10.8357 -0.0038 4.3389 2.4216 0.0000 0.0000 -2.8472 -2.2883 8.0305 12.9019 0.0000 0.0000 -7.6010 5.3899 4.2373 -2.4156 0.0000 -0.0000
 0.5845 -10.0307 38.1813 2.1954 1.2970 -176.9546 0.8676 -0.0419 -0.5870 0.5044 0.1546 -0.1159 0.0908 -2.2856 -1.8501 -0.4755 0.0665 0.4587 1.0470 -0.3557 -2.8678 0.0318 1.2871 -0.0012 -2.6850 9.4513 -1.5930 4.3758 3.5397 -2.1375 0.0000 0.0000 10.5652 -1.9342 16.6343 -2.2543 0.0000 -0.0000 -0.0000 -0.0000 -0.0000 0.0000 -9.0729 -7.8285 -5.1645 15.3689 2.8962 1.8834 -0.0000 -0.0000 -12.4828 -7.8849 -13.4893 1.1686 0.0000 -0.0000 -0.0000 0.0000 0.0000 0.0000 -2.0058 3.7808 -39.6107 12.2951 0.0000 0.0000 -10.8127 -0.0902 4.4294 2.4197 0.0000 0.0000 -2.7993 -2.2824 8.1123 12.8951 0.0000 0.0000 -7.6265 5.3792 4.2764 -2.1165 0.0000 -0.0000
 0.5689 -10.0121 38.1818 2.1972 1.2824 -177.1041 0.8647 -0.0424 -0.5852 0.5070 0.1526 -0.1124 0.0764 -2.2674 -1.8049 -0.4842 0.0606 0.4631 1.0479 -0.3421 -2.8298 0.0468 1.2670 -0.0005 -2.7813 9.5596 -1.5218 4.3807 3.5759 -2.1422 0.0000 0.0000 10.5680 -1.8882 16.6504 -2.2955 0.0000 0.0000 0.0000 -0.0000 -0.0000 -0.0000 -9.2194 -7.8938 -5.0815 15.3259 2.8052 1.9578 -0.0000 -0.0000 -12.4436 -7.8317 -13.6093 1.2293 0.0000 -0.0000 -0.0000 -0.0000 0.0000 -0.0000 -1.9862 3.7955 -39.5848 12.2860 0.0000 0.0000 -10.7866 -0.1907 4.5334 2.4176 0.0000 0.0000 -2.7447 -2.2742 8.2096 12.8898 0.0000 0.0000 -7.6586 5.3601 4.3245 -1.7828 0.0000 -0.0000
 0.5509 -9.9901 38.1824 2.2089 1.2679 -177.2741 0.8707 -0.0402 -0.5839 0.5103 0.1484 -0.1103 0.0608 -2.2457 -1.7489 -0.4936 0.0540 0.4648 1.0471 -0.3230 -2.7839 0.0641 1.2410 0.0015 -2.8817 9.6854 -1.4431 4.3888 3.6099 -2.1423 0.0000 0.0000 10.5671 -1.8371 16.6739 -2.3415 0.0000 0.0000 0.0000 0.0000 -0.0000 0.0000 -9.3863 -7.9698 -4.9867 15.2624 2.7066 2.0429 -0.0000 -0.0000 -12.4005 -7.7660 -13.7438 1.3033 -0.0000 -0.0000 0.0000 0.0000 -0.0000 -0.0000 -1.9534 3.8148 -39.5560 12.2770 0.0000 0.0000 -10.7583 -0.3031 4.6525 2.4145 0.0000 0.0000 -2.6710 -2.2618 8.3197 12.8825 0.0000 0.0000 -7.6951 5.3322 4.3811 -1.4311 0.0000 -0.0000
 0.5309 -9.9658 38.1829 2.2220 1.2532 -177.4595 0.8774 -0.0367 -0.5814 0.5139 0.1439 -0.1081 0.0456 -2.2207 -1.6908 -0.5034 0.0456 0.4677 1.0450 -0.2985 -2.7313 0.0810 1.2104 0.0050 -2.9830 9.8253 -1.3571 4.3997 3.6384 -2.1404 0.0000 0.0000 10.5635 -1.7813 16.7045 -2.3919 0.0000 0.0000 0.0000 -0.0000 -0.0000 -0.0000 -9.5682 -8.0523 -4.8835 15.1741 2.6034 2.1368 -0.0000 -0.0000 -12.3553 -7.6915 -13.8878 1.3891 -0.0000 -0.0000 0.0000 -0.0000 -0.0000 0.0000 -1.9191 3.8386 -39.5179 12.2723 0.0000 0.0000 -10.7297 -0.4216 4.7768 2.4110 0.0000 0.0000 -2.5904 -2.2456 8.4394 12.8761 0.0000 0.0000 -7.7360 5.2949 4.4449 -1.0793 0.0000 -0.0000
 0.5093 -9.9394 38.1835 2.2436 1.2404 -177.6538 0.8912 -0.0306 -0.5798 0.5183 0.1388 -0.1058 0.0314 -2.1934 -1.6285 -0.5132 0.0366 0.4702 1.0414 -0.2683 -2.6742 0.0978 1.1749 0.0106 -3.0783 9.9749 -1.2696 4.4125 3.6593 -2.1341 0.0000 0.0000 10.5551 -1.7265 16.7381 -2.4430 0.0000 0.0000 0.0000 -0.0000 -0.0000 0.0000 -9.7591 -8.1399 -4.7788 15.0598 2.5023 2.2390 -0.0000 -0.0000 -12.3106 -7.6108 -14.0359 1.4836 -0.0000 -0.0000 0.0000 0.0000 0.0000 0.0000 -1.8749 3.8673 -39.4761 12.2702 0.0000 0.0000 -10.7022 -0.5428 4.9055 2.4068 0.0000 0.0000 -2.4960 -2.2241 8.5635 12.8681 0.0000 0.0000 -7.7790 5.2491 4.5151 -0.7454 0.0000 -0.0000
 0.4872 -9.9120 38.1840 2.2644 1.2267 -177.8500 0.9028 -0.0253 -0.5784 0.5234 0.1338 -0.1035 0.0192 -2.1644 -1.5652 -0.5222 0.0274 0.4721 1.0362 -0.2342 -2.6142 0.1123 1.1375 0.0184 -3.1646 10.1285 -1.1831 4.4254 3.6703 -2.1238 0.0000 0.0000 10.5432 -1.6748 16.7738 -2.4959 0.0000 0.0000 0.0000 -0.0000 -0.0000 -0.0000 -9.9522 -8.2294 -4.6749 14.9179 2.4075 2.3448 -0.0000 -0.0000 -12.2678 -7.5250 -14.1839 1.5849 0.0000 -0.0000 -0.0000 -0.0000 0.0000 0.0000 -1.8317 3.8966 -39.4280 12.2706 0.0000 0.0000 -10.6754 -0.6613 5.0302 2.4013 0.0000 0.0000 -2.4024 -2.2016 8.6898 12.8633 0.0000 0.0000 -7.8250 5.1958 4.5875 -0.4451 0.0000 -0.0000
 0.4649 -9.8841 38.1844 2.2908 1.2141 -178.0419 0.9193 -0.0194 -0.5770 0.5284 0.1289 -0.1008 0.0090 -2.1341 -1.5035 -0.5298 0.0177 0.4738 1.0297 -0.1959 -2.5529 0.1245 1.0977 0.0282 -3.2379 10.2836 -1.1011 4.4372 3.6674 -2.1090 0.0000 0.0000 10.5273 -1.6294 16.8100 -2.5479 -0.0000 0.0000 -0.0000 -0.0000 -0.0000 0.0000 -10.1399 -8.3201 -4.5756 14.7500 2.3262 2.4500 -0.0000 -0.0000 -12.2275 -7.4383 -14.3288 1.6888 0.0000 0.0000 -0.0000 0.0000 -0.0000 0.0000 -1.7822 3.9271 -39.3791 12.2725 0.0000 0.0000 -10.6506 -0.7746 5.1508 2.3946 0.0000 0.0000 -2.3028 -2.1769 8.8143 12.8583 0.0000 0.0000 -7.8714 5.1369 4.6599 -0.1911 0.0000 -0.0000
 0.4430 -9.8566 38.1848 2.3119 1.2028 -178.2235 0.9292 -0.0129 -0.5752 0.5337 0.1237 -0.0988 0.0027 -2.1028 -1.4433 -0.5363 0.0087 0.4743 1.0227 -0.1555 -2.4928 0.1320 1.0579 0.0400 -3.2973 10.4316 -1.0260 4.4469 3.6544 -2.0914 0.0000 0.0000 10.5091 -1.5941 16.8428 -2.5988 0.0000 -0.0000 0.0000 -0.0000 -0.0000 0.0000 -10.3180 -8.4068 -4.4848 14.5621 2.2591 2.5527 -0.0000 -0.0000 -12.1904 -7.3534 -14.4670 1.7916 0.0000 -0.0000 -0.0000 -0.0000 -0.0000 0.0000 -1.7399 3.9586 -39.3245 12.2780 0.0000 0.0000 -10.6292 -0.8789 5.2573 2.3868 0.0000 0.0000 -2.2123 -2.1503 8.9321 12.8558 0.0000 0.0000 -7.9176 5.0740 4.7318 0.0086 0.0000 0.0000
 0.4220 -9.8295 38.1852 2.3366 1.1931 -178.3904 0.9424 -0.0064 -0.5736 0.5383 0.1187 -0.0968 -0.0007 -2.0707 -1.3877 -0.5408 0.0002 0.4743 1.0156 -0.1139 -2.4350 0.1361 1.0184 0.0531 -3.3411 10.5724 -0.9597 4.4528 3.6269 -2.0702 0.0000 0.0000 10.4890 -1.5701 16.8722 -2.6477 -0.0000 0.0000 -0.0000 0.0000 -0.0000 0.0000 -10.4798 -8.4912 -4.4037 14.3571 2.2126 2.6486 -0.0000 -0.0000 -12.1569 -7.2731 -14.5981 1.8918 -0.0000 0.0000 0.0000 0.0000 0.0000 0.0000 -1.6927 3.9895 -39.2738 12.2832 0.0000 0.0000 -10.6103 -0.9746 5.3549 2.3778 0.0000 0.0000 -2.1202 -2.1228 9.0419 12.8521 0.0000 0.0000 -7.9620 5.0096 4.7997 0.1515 0.0000 0.0000
 0.4021 -9.8034 38.1856 2.3605 1.1843 -178.5392 0.9544 -0.0005 -0.5720 0.5420 0.1136 -0.0948 -0.0007 -2.0380 -1.3369 -0.5437 -0.0070 0.4736 1.0096 -0.0730 -2.3819 0.1351 0.9810 0.0669 -3.3716 10.7000 -0.9031 4.4562 3.5891 -2.0478 0.0000 0.0000 10.4694 -1.5587 16.8943 -2.6951 -0.0000 0.0000 -0.0000 -0.0000 -0.0000 0.0000 -10.6234 -8.5705 -4.3353 14.1441 2.1860 2.7372 -0.0000 -0.0000 -12.1267 -7.1964 -14.7204 1.9873 -0.0000 -0.0000 0.0000 0.0000 0.0000 0.0000 -1.6455 4.0187 -39.2272 12.2871 0.0000 0.0000 -10.5936 -1.0613 5.4405 2.3679 0.0000 0.0000 -2.0328 -2.0956 9.1412 12.8478 0.0000 0.0000 -8.0044 4.9457 4.8624 0.2395 0.0000 0.0000
 0.3835 -9.7782 38.1861 2.3864 1.1767 -178.6680 0.9685 0.0042 -0.5704 0.5443 0.1089 -0.0923 0.0024 -2.0047 -1.2927 -0.5450 -0.0128 0.4726 1.0054 -0.0342 -2.3344 0.1302 0.9461 0.0806 -3.3902 10.8133 -0.8564 4.4565 3.5416 -2.0246 0.0000 0.0000 10.4514 -1.5595 16.9079 -2.7415 0.0000 0.0000 0.0000 -0.0000 -0.0000 0.0000 -10.7472 -8.6450 -4.2799 13.9315 2.1798 2.8160 -0.0000 -0.0000 -12.0986 -7.1256 -14.8348 2.0768 -0.0000 -0.0000 -0.0000 0.0000 0.0000 0.0000 -1.5938 4.0453 -39.1893 12.2875 0.0000 0.0000 -10.5781 -1.1412 5.5167 2.3573 0.0000 0.0000 -1.9462 -2.0691 9.2293 12.8410 0.0000 0.0000 -8.0439 4.8842 4.9181 0.2794 0.0000 0.0000
 0.3664 -9.7548 38.1866 2.3971 1.1679 -178.7766 0.9665 0.0061 -0.5683 0.5464 0.1043 -0.0911 0.0092 -1.9711 -1.2523 -0.5445 -0.0163 0.4697 1.0030 0.0007 -2.2930 0.1196 0.9147 0.0931 -3.4013 10.9089 -0.8188 4.4549 3.4882 -2.0017 0.0000 0.0000 10.4365 -1.5722 16.9155 -2.7866 -0.0000 -0.0000 -0.0000 0.0000 0.0000 0.0000 -10.8520 -8.7132 -4.2351 13.7266 2.1903 2.8831 -0.0000 -0.0000 -12.0714 -7.0574 -14.9420 2.1613 0.0000 0.0000 -0.0000 0.0000 -0.0000 -0.0000 -1.5580 4.0681 -39.1545 12.2869 0.0000 0.0000 -10.5633 -1.2145 5.5779 2.3466 0.0000 0.0000 -1.8820 -2.0458 9.3052 12.8372 0.0000 0.0000 -8.0825 4.8260 4.9669 0.2809 0.0000 0.0000
 0.3502 -9.7315 38.1872 2.4231 1.1626 -178.8664 0.9810 0.0091 -0.5661 0.5461 0.0992 -0.0890 0.0174 -1.9356 -1.2193 -0.5429 -0.0184 0.4670 1.0038 0.0320 -2.2580 0.1075 0.8850 0.1030 -3.4058 10.9923 -0.7886 4.4520 3.4265 -1.9800 0.0000 0.0000 10.4251 -1.5956 16.9137 -2.8320 -0.0000 0.0000 0.0000 -0.0000 -0.0000 -0.0000 -10.9374 -8.7790 -4.2008 13.5384 2.2180 2.9371 -0.0000 -0.0000 -12.0432 -6.9951 -15.0409 2.2402 -0.0000 -0.0000 -0.0000 0.0000 0.0000 0.0000 -1.5003 4.0909 -39.1381 12.2789 0.0000 0.0000 -10.5484 -1.2874 5.6400 2.3352 0.0000 0.0000 -1.7996 -2.0204 9.3706 12.8230 0.0000 0.0000 -8.1158 4.7726 5.0078 0.2558 0.0000 0.0000
